<?xml version="1.0"?>
<svg xmlns="http://www.w3.org/2000/svg" xmlns:xlink="http://www.w3.org/1999/xlink" version="1.1" id="Capa_1" x="0px" y="0px" width="512px" height="512px" viewBox="0 0 45.604 45.604" style="enable-background:new 0 0 45.604 45.604;" xml:space="preserve" class=""><g><g>
	<g>
		<g>
			<path d="M17.576,32.232c-0.299-0.387-0.43-0.88-0.361-1.364c0.067-0.484,0.326-0.923,0.72-1.212l4.828-3.561l-4.98-4.585     c-0.711-0.655-0.784-1.751-0.17-2.496l5.998-7.26l-1.69-6.125C16.667,1.261,8.851,1.54,3.918,6.467     c-5.224,5.223-5.224,13.696,0,18.921c0.243,0.239,11.273,11.216,16.358,16.279l1.799-3.616L17.576,32.232z" data-original="#000000" class="active-path" data-old_color="#000000" fill="#BD1111"/>
		</g>
		<g>
			<path d="M41.685,6.467c-4.428-4.426-11.184-5.101-16.32-2.029l2.004,7.26c0.158,0.572,0.026,1.185-0.352,1.643l-5.502,6.66     l5.334,4.914c0.397,0.367,0.612,0.895,0.583,1.436c-0.03,0.543-0.3,1.043-0.736,1.365l-5.104,3.763l4.058,5.25     c0.427,0.553,0.5,1.298,0.189,1.923l-2.19,4.403c0.299-0.114,0.579-0.291,0.818-0.531C29.03,37.981,41.43,25.643,41.686,25.39     C46.911,20.164,46.911,11.69,41.685,6.467z" data-original="#000000" class="active-path" data-old_color="#000000" fill="#BD1111"/>
		</g>
	</g>
</g></g> </svg>
