<svg id="color" enable-background="new 0 0 24 24" height="512" viewBox="0 0 24 24" width="512" xmlns="http://www.w3.org/2000/svg"><path d="m21.5 17h-5c-.276 0-.5-.224-.5-.5v-4.5c0-.276.224-.5.5-.5h5c.276 0 .5.224.5.5v4.5c0 .276-.224.5-.5.5z" fill="#ffb300"/><path d="m19 11.5h-2.5c-.276 0-.5.224-.5.5v4.5c0 .276.224.5.5.5h2.5z" fill="#de9c00"/><path d="m9.5 17h-4.5c-.276 0-.5-.224-.5-.5v-5c0-.276.224-.5.5-.5h4.5c.276 0 .5.224.5.5v5c0 .276-.224.5-.5.5z" fill="#42a5f5"/><path d="m7.25 11h-2.25c-.276 0-.5.224-.5.5v5c0 .276.224.5.5.5h2.25z" fill="#3990d5"/><path d="m23.25 17h-22.5c-.22 0-.43.1-.58.27-.14.17-.2.4-.16.61l.29 1.62.28 1.5.43 2.38c.07.36.38.62.74.62h15.5c.21 0 .41-.09.56-.25l2.5-2.75 1.36-1.5.91-1h.67c.41 0 .75-.34.75-.75s-.34-.75-.75-.75z" fill="#607d8b"/><path d="m21.67 19.5-1.36 1.5h-19.73l-.28-1.5z" fill="#90a4ae"/><path d="m10.5 17h-9.75c-.22 0-.43.1-.58.27-.14.17-.2.4-.16.61l.29 1.62.28 1.5.43 2.38c.07.36.38.62.74.62h8.75v-3h-9.92l-.28-1.5h10.2z" fill="#546d79"/><path d="m10.5 19.5h-10.2l.28 1.5h9.92z" fill="#7d8f97"/><path d="m5 11h-4.5c-.276 0-.5-.224-.5-.5v-5c0-.276.224-.5.5-.5h4.5c.276 0 .5.224.5.5v5c0 .276-.224.5-.5.5z" fill="#4caf50"/><path d="m5 17h-4.5c-.276 0-.5-.224-.5-.5v-5c0-.276.224-.5.5-.5h4.5c.276 0 .5.224.5.5v5c0 .276-.224.5-.5.5z" fill="#2196f3"/><path d="m2.75 5h-2.25c-.276 0-.5.224-.5.5v5c0 .276.224.5.5.5h2.25z" fill="#429846"/><path d="m2.75 11h-2.25c-.276 0-.5.224-.5.5v5c0 .276.224.5.5.5h2.25z" fill="#1d83d4"/><path d="m16.5 17h-5c-.276 0-.5-.224-.5-.5v-4.5c0-.276.224-.5.5-.5h5c.276 0 .5.224.5.5v4.5c0 .276-.224.5-.5.5z" fill="#ffca28"/><path d="m14 11.5h-2.5c-.276 0-.5.224-.5.5v4.5c0 .276.224.5.5.5h2.5z" fill="#deb023"/><path d="m18.5 11.5h-5c-.276 0-.5-.224-.5-.5v-4c0-.276.224-.5.5-.5h5c.276 0 .5.224.5.5v4c0 .276-.224.5-.5.5z" fill="#ffe082"/><path d="m16 6.5h-2.5c-.276 0-.5.224-.5.5v4c0 .276.224.5.5.5h2.5z" fill="#dec371"/></svg>